<?xml version="1.0" encoding="utf-8"?>
<!-- Generator: Adobe Illustrator 24.0.1, SVG Export Plug-In . SVG Version: 6.00 Build 0)  -->
<svg version="1.1" id="_x33_0" xmlns="http://www.w3.org/2000/svg" xmlns:xlink="http://www.w3.org/1999/xlink" x="0px" y="0px"
	 viewBox="0 0 512 512" style="enable-background:new 0 0 512 512;" xml:space="preserve">
<style type="text/css">
	.st0{fill:#009999;}
	.st1{fill:#FFFFFF;}
	.st2{fill:#FF6600;}
	.st3{stroke:#FFFFFF;stroke-width:6;stroke-miterlimit:10;}
</style>
<g>
	<g>
		<g>
			<path class="st0" d="M264,288h80h16h72v24l64-56l-64-56v24H264V288z"/>
			<path class="st1" d="M429,318.6V291H261v-70h168v-27.6l71.6,62.6L429,318.6z M267,285h168v20.4l56.4-49.4L435,206.6V227H267V285z
				"/>
		</g>
	</g>
	<g>
		<g>
			<path class="st0" d="M200,128h80h16h72v24l64-56l-64-56v24H200V128z"/>
			<path class="st1" d="M365,158.6V131H197V61h168V33.4L436.6,96L365,158.6z M203,125h168v20.4L427.4,96L371,46.6V67H203V125z"/>
		</g>
	</g>
	<g>
		<g>
			<path class="st2" d="M200,200h-48v-40h48V200z"/>
		</g>
	</g>
	<g>
		<g>
			<path class="st0" d="M200,432h80h16h72v24l64-56l-64-56v24H200V432z"/>
			<path class="st1" d="M365,462.6V435H197v-70h168v-27.6l71.6,62.6L365,462.6z M203,429h168v20.4l56.4-49.4L371,350.6V371H203V429z
				"/>
		</g>
	</g>
	<g>
		<path class="st3" d="M168,480c0-10.4-6.7-19.2-16-22.5V398c0-25.9-3.6-51.7-10.7-76.6L136,303v-23h24c10.4,0,19.2-6.7,22.5-16H216
			c8.8,0,16-7.2,16-16v-80c0-8.8-7.2-16-16-16h-80c-8.8,0-16,7.2-16,16v21.8c-8.2-11.4-19.1-20.7-32-26.8v-11h8
			c13.2,0,24-10.8,24-24v-12.7l9.2-9.2L123.1,88H136c8.8,0,16-7.2,16-16V56c0-8.8-7.2-16-16-16h-16.8C115.5,21.8,99.3,8,80,8H48
			C25.9,8,8,25.9,8,48v44.2c0,23.4,12.2,44.4,32,56.3v16.3c-10.3,11.5-16,26.2-16,41.8v9.4v8v80c0,12.2,2.7,24.1,7.5,35l-2.2,15.2
			C25.8,378.9,24,404.1,24,429v51c0,13.2,10.8,24,24,24h456v-16H166.5C167.4,485.5,168,482.8,168,480L168,480z M73.5,458l3.2-14.3
			c2.8-12.4,6.7-24.6,11.6-36.3c3.4,6.6,6,13.6,7.6,20.9l8.1,36.5V480c0,2.8,0.6,5.5,1.5,8h-19c0.9-2.5,1.5-5.2,1.5-8
			C88,470.2,82,461.7,73.5,458z M118.4,456l-6.9-31.1c-5.4-24.2-19.3-45.8-39.1-60.6l-3.6-2.7c-15.9-11.9-26.1-30-28.3-49.6h81.7
			l3.7,13.7c6.7,23.5,10.1,47.8,10.1,72.3v58H118.4z M160,264h-8v-16h8c4.4,0,8,3.6,8,8S164.4,264,160,264z M216,168v80h-33.5
			c-3.3-9.3-12.1-16-22.5-16h-24v-64H216z M110.8,101.8l-6.8,6.8V128c0,4.4-3.6,8-8,8H72v24H56V88h50.2L110.8,101.8z M136,72H74.2
			l4-16H136V72z M48,24h32c10.4,0,19.2,6.7,22.5,16H78.2c-7.4,0-13.7,5-15.5,12.1l-5,19.9H24V48C24,34.8,34.8,24,48,24z M24,92.2V88
			h16v40.9C29.9,119.6,24,106.4,24,92.2z M40,206.6c0-11.4,4.1-22.1,11.5-30.6h26.9c21.4,9.1,36.9,28.8,40.8,51.8l0.7,4.2H88
			c-8.8,0-16-7.2-16-16H56c0,17.6,14.4,32,32,32h48v16H80c-22.1,0-40-17.9-40-40v-8V206.6z M80,280h40v16H40v-32.9
			C50.2,273.5,64.3,280,80,280z M59.2,374.4l3.6,2.7c5.7,4.2,10.7,9.2,15.1,14.6c-7.4,15.5-13.1,31.8-16.8,48.6L57.6,456H40v-27
			c0-22.8,1.6-45.8,4.6-68.4C48.9,365.7,53.8,370.3,59.2,374.4L59.2,374.4z M48,488c-4.4,0-8-3.6-8-8v-8h24c4.4,0,8,3.6,8,8
			s-3.6,8-8,8H48z M128,488c-4.4,0-8-3.6-8-8v-8h24c4.4,0,8,3.6,8,8s-3.6,8-8,8H128z"/>
		<polygon points="267,229 437,229 437,211 488.4,256 437,301 437,283 363,283 363,293 427,293 427,323 503.6,256 427,189 427,219 
			267,219 		"/>
		<rect x="299" y="283" width="42" height="10"/>
		<polygon points="203,373 373,373 373,355 424.4,400 373,445 373,427 299,427 299,437 363,437 363,467 439.6,400 363,333 363,363 
			203,363 		"/>
		<rect x="235" y="427" width="42" height="10"/>
		<polygon points="267,69 373,69 373,51 424.4,96 373,141 373,123 299,123 299,133 363,133 363,163 439.6,96 363,29 363,59 267,59 
					"/>
		<rect x="203" y="59" width="42" height="10"/>
	</g>
</g>
</svg>
