<?xml version="1.0" encoding="utf-8"?>
<!-- Generator: Adobe Illustrator 24.0.1, SVG Export Plug-In . SVG Version: 6.00 Build 0)  -->
<svg version="1.1" id="_x33_0" xmlns="http://www.w3.org/2000/svg" xmlns:xlink="http://www.w3.org/1999/xlink" x="0px" y="0px"
	 viewBox="0 0 512 512" style="enable-background:new 0 0 512 512;" xml:space="preserve">
<style type="text/css">
	.st0{fill:#FF6600;}
	.st1{stroke:#FFFFFF;stroke-width:6;stroke-miterlimit:10;}
</style>
<g>
	<g>
		<g>
			<path class="st0" d="M456,424h-64v-40h64V424z"/>
		</g>
	</g>
	<g>
		<g>
			<path class="st0" d="M280,424h-64v-40h64V424z"/>
		</g>
	</g>
	<g>
		<g>
			<path class="st0" d="M456,248h-64v-40h64V248z"/>
		</g>
	</g>
	<g>
		<g>
			<path class="st0" d="M280,248h-64v-40h64V248z"/>
		</g>
	</g>
	<g>
		<g>
			<path class="st0" d="M456,72h-64V32h64V72z"/>
		</g>
	</g>
	<g>
		<g>
			<path class="st0" d="M280,72h-64V32h64V72z"/>
		</g>
	</g>
	<path class="st1" d="M488,184c8.8,0,16-7.2,16-16V40c0-8.8-7.2-16-16-16H360c-8.8,0-16,7.2-16,16v96h-16V40c0-8.8-7.2-16-16-16H184
		c-8.8,0-16,7.2-16,16v96h-52.4c2.7-4.7,4.4-10.2,4.4-16V88h16c8.8,0,16-7.2,16-16V56c0-8.8-7.2-16-16-16h-16.8
		C115.5,21.8,99.3,8,80,8H48C25.9,8,8,25.9,8,48v44.2c0,23.4,12.2,44.4,32,56.3v0.3c-10.2,11.4-16,26.5-16,41.8v9.4v248
		c0,6.2,2.4,11.7,6.2,16c-3.8,4.3-6.2,9.8-6.2,16c0,13.2,10.8,24,24,24h440c8.8,0,16-7.2,16-16v-96c0-8.8-7.2-16-16-16H360
		c-8.8,0-16,7.2-16,16v96h-16v-96c0-8.8-7.2-16-16-16H184c-8.8,0-16,7.2-16,16v96h-33.5c0.9-2.5,1.5-5.2,1.5-8
		c0-6.2-2.4-11.7-6.2-16c3.8-4.3,6.2-9.8,6.2-16v-88h352c8.8,0,16-7.2,16-16V216c0-8.8-7.2-16-16-16H360c-8.8,0-16,7.2-16,16v96h-16
		v-96c0-8.8-7.2-16-16-16H200v-16H488z M360,392h128v96H360V392z M136,168c-3.7,0-7.1,1.3-9.8,3.5c-4.6-7.8-10.9-14.5-18.5-19.5H488
		v16H136z M360,40h128v96H360V40z M184,40h128v96H184V40z M104,120c0,8.8-7.2,16-16,16h-8v16v6.2v7.1c0,2.3-3.4,3.4-4.8,1.6
		L56,141.3V88h48V120z M136,72H74.2l4-16H136V72z M48,24h32c10.4,0,19.2,6.7,22.5,16H78.2c-7.4,0-13.7,5-15.5,12.1l-5,19.9H24V48
		C24,34.8,34.8,24,48,24z M24,92.2V88h16v40.9C29.9,119.6,24,106.4,24,92.2z M50.7,160.9l11.7,15.6c3.5,4.7,9.1,7.5,14.9,7.5
		c10.3,0,18.7-8.4,18.7-18.7v-1.6c11.3,6.1,19.4,17.1,21.5,30.1l2.5,14.8V232h-16c-17.6,0-32-14.4-32-32H56c0,26.5,21.5,48,48,48h40
		c4.4,0,8,3.6,8,8s-3.6,8-8,8h-40c-35.3,0-64-28.7-64-64v-9.4C40,179.8,43.9,169.2,50.7,160.9L50.7,160.9z M166.5,264h1.5v48h-32
		v-32h8C154.4,280,163.2,273.3,166.5,264z M104,280h16v32H40v-64.2C54.6,267.3,77.8,280,104,280z M112,456H88v-96H72v96H48
		c-4.4,0-8-3.6-8-8v-88.8c15.6-3.2,28-15.5,31.2-31.2H120v120C120,452.4,116.4,456,112,456L112,456z M40,328h14.5
		c-2.4,6.8-7.8,12.1-14.5,14.5V328z M40,480c0-4.4,3.6-8,8-8h24v16H48C43.6,488,40,484.4,40,480z M184,392h128v96H184V392z M88,488
		v-16h24c4.4,0,8,3.6,8,8s-3.6,8-8,8H88z M136,344v-16h352v16H136z M360,216h128v96H360V216z M312,216v96H184v-48
		c8.8,0,16-7.2,16-16v-32H312z M184,248h-17.5c-3.3-9.3-12.1-16-22.5-16h-8v-48h48V248z"/>
</g>
</svg>
