<?xml version="1.0" encoding="utf-8"?>
<!-- Generator: Adobe Illustrator 24.0.1, SVG Export Plug-In . SVG Version: 6.00 Build 0)  -->
<svg version="1.1" id="_x33_0" xmlns="http://www.w3.org/2000/svg" xmlns:xlink="http://www.w3.org/1999/xlink" x="0px" y="0px"
	 viewBox="0 0 512 512" style="enable-background:new 0 0 512 512;" xml:space="preserve">
<style type="text/css">
	.st0{fill:#FF6600;}
	.st1{stroke:#FFFFFF;stroke-width:6;stroke-miterlimit:10;}
	.st2{fill:#F0BC5E;}
</style>
<g>
	<g>
		<path class="st0" d="M184,344h-80v-56h80V344z"/>
	</g>
	<g>
		<circle class="st1" cx="176" cy="128" r="8"/>
		<circle class="st1" cx="112" cy="128" r="8"/>
		<path class="st1" d="M184,168h-16c0,8.8-7.2,16-16,16h-32v16h32C169.6,200,184,185.6,184,168z"/>
		<path class="st1" d="M168,424h16v16h-16V424z"/>
		<path class="st1" d="M136,424h16v16h-16V424z"/>
		<circle class="st1" cx="352" cy="192" r="8"/>
		<path d="M436.3,317.1l-0.4-0.3l-9-13.5c-3.8-5.6-5.8-12.3-5.8-19.3c0-6.9,2-13.5,5.8-19.2l2.7-4c4.9-7.3,7.5-15.9,7.5-24.7
			s-2.6-17.4-7.5-24.7l-4-6c-3-4.5-4.5-9.7-4.5-15c0-15.1-12.2-27.3-27.3-27.3H315v16.2c0,2.1-0.6,4.1-1.7,6l-0.1,0.1L302.8,201
			c-2.5,3.8-3.8,8-3.8,12.4c0,8.5,4.7,16.2,12.3,20l3.7,1.8V256c0,20.4,16.6,37,37,37h27v23.7l-1.8,0.8
			c-23.4,10.5-43.2,27.3-57,48.6c-13.9,21.4-21.2,46.3-21.2,72.1v4.8h-24.9l-7.7-7.7c-4.9-4.9-11.4-7.8-18.5-8.1l-2.8-0.1V421h3
			c16,0,29-13,29-29v-70.4c0-43.8-34.2-81-78-84.7l-19.4-1.6l-3.1-9l2.7-1c17.7-6.9,30.3-22.9,33-41.7l0.4-2.6h3.2c16,0,29-13,29-29
			c0-6.1-1.9-11.9-5.6-16.9l-1-1.3l0.6-1.5c3.6-9,5.6-18.7,5.9-28.3l0.1-2.9H264c7.2,0,13-5.8,13-13v-8c0-11.6-9.4-21-21-21h-11.2
			l-0.4-2.6C240.7,30.5,218.2,11,192,11H96c-29.2,0-53,23.8-53,53v37h0l0.1,2.9c0.2,9.5,2.2,19.3,5.9,28.2l0.6,1.6l-1,1.4
			c-3.7,5-5.6,10.8-5.6,16.9c0,16,13,29,29,29h3.2l0.4,2.6c2.7,18.7,15.4,34.7,33,41.7l2.7,1.1l-3.1,9l-19.4,1.6
			C45.2,240.6,11,277.8,11,321.6V392c0,16,13,29,29,29h3v35c0,7.2,5.8,13,13,13h131v3c0,16,13,29,29,29h136c64.5,0,117-52.5,117-117
			C469,358,456.8,333,436.3,317.1z M352,283c-11.3,0-21.5-7.2-25.3-18l-1.4-4h16.8c11.9,0,22.7-6.1,28.9-16.1l-9-4.5
			c-4.4,6.6-11.8,10.7-19.9,10.7H325v-14.1c0-5-2.7-9.4-7.1-11.6l-2-1c-4.2-2.1-6.9-6.4-6.9-11.1c0-2.5,0.7-4.9,2.1-6.9l10.4-15.6
			c2.3-3.5,3.5-7.5,3.5-11.6V173h68.7c9.5,0,17.3,7.8,17.3,17.3c0,7.4,2.1,14.5,6.2,20.5l4,6c3.8,5.6,5.8,12.3,5.8,19.3
			c0,6.9-2,13.5-5.8,19.2l-2.7,4c-4.9,7.3-7.5,15.9-7.5,24.7s2.6,17.4,7.5,24.7l4.3,6.3H389v-32H352z M267,392c0,10.5-8.5,19-19,19
			h-8c-6.1,0-11-4.9-11-11v-32c0-6.1,4.9-11,11-11h8c10.5,0,19,8.5,19,19V392z M195.9,246.7l2.8,0.2c38.3,3.4,68.3,36.2,68.3,74.7
			v32.1l-4.5-2.7c-4.4-2.6-9.3-4-14.5-4h-3v-51c0-7.2-5.8-13-13-13h-42.1L195.9,246.7z M177,245.1l8.9,0.7l-5.5,32.9l-27.3-21.7
			L177,245.1z M169.7,283h-51.5l25.7-20.6L169.7,283z M118.1,237.5l3-8.9l2.3,0.1c1.6,0.1,3.1,0.2,4.6,0.2h32c1.5,0,3-0.1,4.6-0.2
			l2.3-0.1l3,8.9L144,250.5L118.1,237.5z M216,171h-3v-38h3c10.5,0,19,8.5,19,19S226.5,171,216,171z M213,123v-22h22l-0.1,3.1
			c-0.2,6.5-1.3,13.1-3.3,19.5l-1,3.2l-3.1-1.3c-3.7-1.6-7.6-2.5-11.5-2.5H213z M256,69c6.1,0,11,4.9,11,11v11H133V80
			c0-6.1,4.9-11,11-11H256z M75,171h-3c-10.5,0-19-8.5-19-19s8.5-19,19-19h3V171z M75,123h-3c-3.9,0-7.8,0.8-11.5,2.5l-3.1,1.3
			l-1-3.2c-2-6.3-3.1-12.9-3.3-19.5L53,101h22V123z M53,91V64c0-23.7,19.3-43,43-43h96c20.4,0,38.1,14.5,42.1,34.4l0.7,3.6H144
			c-11.6,0-21,9.4-21,21v11H53z M85,176v-75h118v75c0,23.7-19.3,43-43,43h-32C104.3,219,85,199.7,85,176z M111,245.2l23.7,11.9
			l-27.3,21.7l-5.5-33L111,245.2z M21,321.6c0-38.4,30-71.3,68.3-74.7l2.8-0.2l6,36.3H56c-7.2,0-13,5.8-13,13v51h-3
			c-5,0-9.9,1.3-14.5,4l-4.5,2.6V321.6z M40,411c-10.5,0-19-8.5-19-19v-16c0-10.5,8.5-19,19-19h8c6.1,0,11,4.9,11,11v32
			c0,6.1-4.9,11-11,11H40z M191,457.5l-0.9,1.5H53v-38.6l2-0.7c8.4-3,14-10.9,14-19.7v-32c0-8.8-5.6-16.7-14-19.7l-2-0.7V293h86v48
			h10v-48h86v54.6l-2,0.7c-8.4,3-14,10.9-14,19.7v32c0,8.8,5.6,16.7,14,19.7l2,0.7v8.9l-1.6,0.8c-5.1,2.7-9.1,6.6-11.7,11.3
			l-0.9,1.6H216C205.7,443,196.3,448.4,191,457.5z M412.2,472.4C394.5,484.6,373.6,491,352,491H216c-10.5,0-19-8.5-19-19
			s8.5-19,19-19h11l3-5.9c3.1-6.2,9.3-10.1,16.3-10.1c4.8,0,9.5,2,12.9,5.4l10.6,10.6h61.6c16.3,0,31.8-7,42.8-19.2l2.1-2.4
			l38.9,38.9L412.2,472.4z M425,461.9l-2.1,2l-41-41l1-1.9c4-8.2,6.1-16.8,6.1-25.5c0-15,7.2-28.9,19.3-37.7l-5.6-8.3
			c-14.9,10.5-23.7,27.6-23.7,46c0,26.2-21.3,47.5-47.5,47.5H309v-4.8c0-49.6,29.6-93.9,75.4-113l0.6-0.2h45.4l0.8,0.7
			c17.4,14.1,27.8,35.9,27.8,58.3C459,413.4,446.6,441.8,425,461.9z"/>
	</g>
	<g>
		<path class="st2" d="M504,262.9v-7.6c0-11.6-3.4-22.9-9.9-32.6l-2.1-3.2c-2.6-4-4-8.6-4-13.3V168c0-44.1-35.9-80-80-80h-72
			c-26.5,0-48,21.5-48,48c0,13.2,10.8,30,24,30l57,2l29,2c12.2,0.2,18,8.1,18,20.3c0,6.3,1.9,12.5,5.4,17.8l4,6
			c4.3,6.5,6.7,14.2,6.7,22s-2.3,15.5-6.7,22l-2.7,4c-4.3,6.5-6.7,14.2-6.7,22s2.3,15.5,6.7,22l9.3,14c20.1,15.1,32,38.8,32,64
			c0,8.3-1,16.4-2.7,24.2l5,3l14.5-8.7c14.3-8.6,23.3-24.3,23.3-41.1c0-7.5-1.8-14.9-5.2-21.6c-1.9-3.7-4.1-8-6.1-11.8
			c-3.1-5.8-4.7-12.2-4.7-19.1c0-8.8,3-17.6,8.7-24.9C501.4,278.1,504,270.6,504,262.9L504,262.9z"/>
	</g>
</g>
<g>
	<g>
		<path class="st2" d="M-1104,24c0-4.4-3.6-8-8-8h-336c-4.4,0-8,3.6-8,8v9.9l8,16c6.8,13.6,20.5,22.1,35.8,22.1h264.4
			c15.2,0,29-8.5,35.8-22.1l8-16L-1104,24L-1104,24z"/>
	</g>
	<g>
		<g>
			<path class="st2" d="M-1128,472h-96v-48h96V472z"/>
		</g>
	</g>
	<g>
		<path d="M1576,440V165.1h-16V440c0,8.8,7.2,16,16,16h136v-16H1576z"/>
		<circle cx="-1312" cy="240" r="8"/>
		<circle cx="-1376" cy="240" r="8"/>
		<circle cx="-1248" cy="240" r="8"/>
		<circle cx="-1184" cy="240" r="8"/>
		<path d="M-1096,24c0-8.8-7.2-16-16-16h-336c-8.8,0-16,7.2-16,16v179.1l-64,32V381l60-30l-14.3,57.1h18.2v72c0,13.2,10.8,24,24,24
			h320c13.2,0,24-10.8,24-24v-72h18.2l-14.3-57.1l60,30V235.1l-64-32L-1096,24L-1096,24z M-1464,331.1l-48,24V244.9l48-24V331.1z
			 M-1448,24h336v176h-59.5c-15.2-22.8-26.2-47.8-32.9-74.5l-0.8-3.3c-2.7-10.7-12.3-18.2-23.3-18.2h-103c-11,0-20.6,7.5-23.3,18.2
			l-0.8,3.3c-6.7,26.7-17.8,51.7-32.9,74.5h-59.5L-1448,24z M-1223.9,240L-1223.9,240c-0.1,13.2-10.9,24-24.1,24s-24-10.8-24-24v-8
			h-16v8c0,13.2-10.8,24-24,24s-24-10.8-24-24h-0.1c0-0.5,0.1-0.9,0.1-1.4V232h-16v6.6c0,13-9.5,24.1-21.6,25.3
			c-6.9,0.6-13.5-1.5-18.5-6.1c-4.4-4-7.1-9.4-7.7-15.3l16.2-21.6c20.6-27.4,35.2-58.2,43.6-91.5l0.8-3.3c0.9-3.6,4.1-6.1,7.8-6.1
			h103c3.7,0,6.9,2.5,7.8,6l0.8,3.3c8.3,33.3,23,64.1,43.6,91.5l16.2,21.6c-0.6,5.8-3.4,11.3-7.7,15.3c-5.1,4.6-11.7,6.7-18.5,6.1
			c-12.1-1.2-21.6-12.3-21.6-25.3V232h-16v6.6C-1224,239.1-1223.9,239.5-1223.9,240L-1223.9,240z M-1224.2,328h-111.6
			c0.5-17.2,4.1-34.4,10.6-50.4c4.1,1.4,8.5,2.4,13.1,2.4c13.1,0,24.7-6.4,32-16.2c7.3,9.8,18.9,16.2,32,16.2c4.6,0,9-0.9,13.1-2.4
			C-1228.4,293.6-1224.7,310.8-1224.2,328L-1224.2,328z M-1215.7,263.4c6.6,9,16.4,15.3,27.8,16.4c1.3,0.1,2.5,0.2,3.8,0.2
			c9.9,0,19.6-3.7,27-10.4c8.3-7.6,13.1-18.4,13.1-29.6v-2.7l-16-21.3h48v112h-96.1c-0.5-20.1-4.8-40.3-12.7-58.8
			C-1219,267.4-1217.3,265.5-1215.7,263.4z M-1448,216h48l-16,21.3v2.7c0,11.2,4.8,22,13.1,29.6s19.6,11.3,30.8,10.2
			c11.4-1.1,21.3-7.4,27.8-16.4c1.5,2.1,3.2,4,5.1,5.8c-7.9,18.5-12.2,38.7-12.7,58.8h-96.1L-1448,216L-1448,216z M-1112,480
			c0,4.4-3.6,8-8,8h-320c-4.4,0-8-3.6-8-8v-72h336V480z M-1461.8,392l12-48h339.5l12,48H-1461.8z M-1048,244.9V355l-48-24V220.9
			L-1048,244.9z"/>
		<path d="M-1080,120h48v16h-48V120z"/>
		<path d="M-1082.5,89.1l40-16l6,14.9l-40,16L-1082.5,89.1z"/>
		<path d="M-1082.5,167.9l5.9-14.9l40,16l-5.9,14.9L-1082.5,167.9z"/>
		<path d="M-1528,120h48v16h-48V120z"/>
		<path d="M-1522.3,88.2l5.9-14.9l40,16l-5.9,14.9L-1522.3,88.2z"/>
		<path d="M-1522.2,169.3l40-16l6,14.9l-40,16L-1522.2,169.3z"/>
	</g>
</g>
</svg>
