<?xml version="1.0" encoding="utf-8"?>
<!-- Generator: Adobe Illustrator 24.0.1, SVG Export Plug-In . SVG Version: 6.00 Build 0)  -->
<svg version="1.1" id="_x33_0" xmlns="http://www.w3.org/2000/svg" xmlns:xlink="http://www.w3.org/1999/xlink" x="0px" y="0px"
	 viewBox="0 0 512 512" style="enable-background:new 0 0 512 512;" xml:space="preserve">
<style type="text/css">
	.st0{fill:#F0BC5E;}
	.st1{fill:#009999;}
	.st2{fill:#FF6600;}
	.st3{stroke:#FFFFFF;stroke-width:6;stroke-miterlimit:10;}
</style>
<g>
	<g>
		<path class="st0" d="M168.9,408h78.2c10.4,10.2,16.9,24.3,16.9,40c0,30.9-25.1,56-56,56s-56-25.1-56-56
			C152,432.3,158.5,418.2,168.9,408z M208,464c8.8,0,16-7.2,16-16s-7.2-16-16-16s-16,7.2-16,16S199.2,464,208,464z"/>
	</g>
	<g>
		<path class="st1" d="M168.9,408h78.2c10.4,10.2,16.9,24.3,16.9,40c0,30.9-25.1,56-56,56s-56-25.1-56-56
			C152,432.3,158.5,418.2,168.9,408z M208,464c8.8,0,16-7.2,16-16s-7.2-16-16-16s-16,7.2-16,16S199.2,464,208,464z"/>
	</g>
	<g>
		<g>
			<path class="st2" d="M328,280h80c8.8,0,16-7.2,16-16v-56H312v56C312,272.8,319.2,280,328,280z"/>
		</g>
	</g>
	<g>
		<path class="st1" d="M360.9,408h78.2c10.4,10.2,16.9,24.3,16.9,40c0,30.9-25.1,56-56,56s-56-25.1-56-56
			C344,432.3,350.5,418.2,360.9,408z M400,464c8.8,0,16-7.2,16-16s-7.2-16-16-16s-16,7.2-16,16S391.2,464,400,464z"/>
	</g>
	<g>
		<path d="M263,427c1.3,3.3,2.2,6.6,2.9,10h76.2c0.7-3.5,1.6-6.8,2.8-10H263z"/>
		<path d="M501,408c0-7.2-5.8-13-13-13h-3V224c0-11.6-9.4-21-21-21H272c-11.6,0-21,9.4-21,21v43h-71.8c-22.6,0-41.8,16.9-44.6,39.4
			l-11,88.6H120c-7.2,0-13,5.8-13,13v16c0,7.2,5.8,13,13,13h30.1c0.7-3.5,1.6-6.8,2.9-10H117v-22h374v22h-35.9
			c1.3,3.3,2.2,6.6,2.9,10H488c7.2,0,13-5.8,13-13V408z M144.5,309H203v22h-61.3L144.5,309z M251,395H133.7l6.8-54H213v-42h-66.5
			l2.6-4.5c6.3-10.8,17.9-17.5,30.2-17.5H251V395z M475,395H261V224c0-6.1,4.9-11,11-11h192c6.1,0,11,4.9,11,11V395z"/>
		<path class="st3" d="M392,232h-16v48h16V232z"/>
		<path class="st3" d="M360,232h-16v48h16V232z"/>
		<path class="st3" d="M376,376h-96v-48h96V376z M360,344h-64v16h64V344z"/>
		<path class="st3" d="M146.3,48H312V6l100,90l-100,90v-42H159.7c-39.5,0-71.7,32.1-71.7,71.7c0,9.8,2,19.3,5.8,28.2l16.6,38.7
			c1.1,2.5,1.6,5.2,1.6,8v1.2c0,11.2-9.1,20.3-20.3,20.3c-4,0-7.9-1.2-11.2-3.4l-10.9-7.3C31,275.6,8,232.6,8,186.3
			C8,110,70,48,146.3,48L146.3,48z M78.4,288l10.9,7.3c2.7,1.8,6.7-0.4,6.7-3.6v-1.2c0-0.6-0.1-1.2-0.3-1.7l-16.6-38.6
			c-4.7-11-7.1-22.6-7.1-34.5c0-48.3,39.3-87.7,87.7-87.7H328v22l60-54l-60-54v22H146.3C78.8,64,24,118.8,24,186.3
			C24,227.3,44.4,265.3,78.4,288z"/>
		<path class="st3" d="M216,200h-16v16h16V200z"/>
		<path class="st3" d="M184,200h-16v16h16V200z"/>
		<path class="st3" d="M152,200h-16v16h16V200z"/>
		<path class="st3" d="M400,424c13.2,0,24,10.8,24,24s-10.8,24-24,24s-24-10.8-24-24S386.8,424,400,424z M400,456c4.4,0,8-3.6,8-8
			s-3.6-8-8-8s-8,3.6-8,8S395.6,456,400,456z"/>
		<path class="st3" d="M208,424c13.2,0,24,10.8,24,24s-10.8,24-24,24s-24-10.8-24-24S194.8,424,208,424z M208,456c4.4,0,8-3.6,8-8
			s-3.6-8-8-8s-8,3.6-8,8S203.6,456,208,456z"/>
	</g>
</g>
</svg>
