<?xml version="1.0" encoding="utf-8"?>
<!-- Generator: Adobe Illustrator 24.0.1, SVG Export Plug-In . SVG Version: 6.00 Build 0)  -->
<svg version="1.1" id="_x33_0" xmlns="http://www.w3.org/2000/svg" xmlns:xlink="http://www.w3.org/1999/xlink" x="0px" y="0px"
	 viewBox="0 0 512 512" style="enable-background:new 0 0 512 512;" xml:space="preserve">
<style type="text/css">
	.st0{fill:#FF6600;}
	.st1{stroke:#FFFFFF;stroke-width:6;stroke-miterlimit:10;}
	.st2{fill:#009999;}
</style>
<g>
	<g>
		<circle class="st0" cx="256" cy="144" r="72"/>
	</g>
	<g>
		<path d="M256,43c-55.7,0-101,45.3-101,101s45.3,101,101,101s101-45.3,101-101S311.7,43,256,43z M283.3,57.1
			c22.9,7.2,42.5,23.8,53.7,45.5l2.2,4.4h-35.1l-0.6-2.1c-4.9-16.4-12.7-30.8-23.4-42.9l-7.1-8.1L283.3,57.1z M299,144
			c0,8.6-0.7,16.7-2.3,24.6l-0.5,2.4h-80.5l-0.5-2.4c-1.5-7.8-2.3-16.1-2.3-24.6c0-8.6,0.7-16.7,2.3-24.6l0.5-2.4h80.5l0.5,2.4
			C298.2,127.2,299,135.5,299,144z M254.3,55.1l1.7-1.2l1.7,1.3c9,6.5,25.4,21.3,34.6,48l1.4,4h-75.5l1.4-4
			C228.8,76.2,245.3,61.5,254.3,55.1z M175.1,102.6c11.1-21.7,30.6-38.3,53.7-45.5l10.3-3.2l-7.2,8.1c-7.3,8.2-17.2,22.2-23.4,42.9
			l-0.6,2.1h-35L175.1,102.6z M168.6,168.9c-2.4-8-3.6-16.3-3.6-24.9c0-8.4,1.2-16.8,3.5-24.8l0.6-2.2h36.4l-0.6,3.5
			c-1.3,8.1-2,15.8-2,23.5c0,8.2,0.7,16.1,2,23.5l0.6,3.5h-36.3L168.6,168.9z M228.7,230.9c-22.9-7.2-42.5-23.8-53.7-45.5l-2.2-4.4
			h35.1l0.6,2.1c4.9,16.4,12.7,30.8,23.4,42.9l7.1,8.1L228.7,230.9z M257.7,232.9l-1.7,1.2l-1.7-1.3c-7.2-5.2-24.9-20.1-34.6-47.9
			l-1.4-4h75.5l-1.4,4C283.2,211.8,266.7,226.5,257.7,232.9z M336.9,185.4c-11.1,21.7-30.6,38.3-53.7,45.5l-10.3,3.2l7.2-8.1
			c7.3-8.2,17.2-22.2,23.4-42.9l0.6-2.1h35L336.9,185.4z M342.9,171h-36.4l0.6-3.5c1.3-8.1,2-15.8,2-23.5c0-8.2-0.7-16.1-2-23.5
			l-0.6-3.5h36.3l0.6,2.1c2.4,8,3.6,16.3,3.6,24.9c0,8.4-1.2,16.8-3.5,24.8L342.9,171z"/>
		<path class="st1" d="M248,264h16v16h-16V264z"/>
		<path class="st1" d="M280,264h16v16h-16V264z"/>
		<path class="st1" d="M216,264h16v16h-16V264z"/>
		<path class="st1" d="M336.6,280c21-28.7,40.3-62.3,49.6-96H424v33.6l84.2-73.6L424,70.4V104h-38C368.9,48.5,317.1,8,256,8
			s-112.9,40.5-130,96H88V70.4L3.8,144L88,217.6V184h37.9c9.3,33.7,28.6,67.3,49.6,96h-49.3L72,307.1V421l48-24v91
			c0,8.8,7.2,16,16,16h240c8.8,0,16-7.2,16-16v-91.1l48,24V307.1L385.9,280H336.6z M389.8,120H440v-14.4l43.8,38.4L440,182.4V168
			h-50.3c1.4-8.1,2.3-16.1,2.3-24C392,135.8,391.1,127.8,389.8,120L389.8,120z M72,168v14.4L28.2,144L72,105.6V120h50.2
			c-1.4,7.8-2.2,15.8-2.2,24c0,7.9,0.8,15.9,2.3,24H72z M120,379.1l-32,16V317l32-16V379.1z M136,144c0-66.2,53.8-120,120-120
			s120,53.8,120,120c0,85.2-100.6,184.9-120,199C236.6,328.9,136,229.2,136,144z M376,488H136v-96h240V488z M376,376H136v-80h51.7
			c30.5,38,61.3,64,68.3,64s37.8-26,68.3-64H376V376z M392,300.9l32,16V395l-32-16V300.9z"/>
	</g>
	<g>
		<g>
			<path class="st2" d="M216,473.1v-13.8c0-24.2,18.1-44.6,42-47.6l38-4.7v13.8c0,24.2-18.1,44.6-42,47.6L216,473.1z"/>
		</g>
	</g>
</g>
</svg>
