<?xml version="1.0" encoding="utf-8"?>
<!-- Generator: Adobe Illustrator 24.0.1, SVG Export Plug-In . SVG Version: 6.00 Build 0)  -->
<svg version="1.1" id="_x33_0" xmlns="http://www.w3.org/2000/svg" xmlns:xlink="http://www.w3.org/1999/xlink" x="0px" y="0px"
	 viewBox="0 0 512 512" style="enable-background:new 0 0 512 512;" xml:space="preserve">
<style type="text/css">
	.st0{fill:#FF6600;}
	.st1{stroke:#FFFFFF;stroke-width:6;stroke-miterlimit:10;}
	.st2{fill:#009999;}
</style>
<g>
	<g>
		<g>
			<path class="st0" d="M408,88H296V16h112V88z"/>
		</g>
	</g>
	<g>
		<g>
			<path class="st0" d="M472,248H360v-64h112V248z"/>
		</g>
	</g>
	<g>
		<path class="st1" d="M104,456h48v16h-48V456z"/>
		<path class="st1" d="M168,456h16v16h-16V456z"/>
		<path class="st1" d="M72,456h16v16H72V456z"/>
		<path class="st1" d="M360,40h16v48h-16V40z"/>
		<path class="st1" d="M328,40h16v48h-16V40z"/>
		<path class="st1" d="M504,264V24c0-8.8-7.2-16-16-16H216c-8.8,0-16,7.2-16,16v23.1C152.7,13.2,85.4,16.8,42.4,58.2l11.1,11.5
			C93.8,30.9,158.8,30.2,200,67.6v41.1c-13.2,5.4-24.2,15.1-31.3,27.3H48c-22.1,0-40,17.9-40,40v288c0,22.1,17.9,40,40,40h160
			c19.3,0,35.5-13.8,39.2-32H288c26,0,50.7-11.8,67.3-31.6L504,456.9V311.1l-148.2,16.5c-11.1-15.1-26.1-26.7-43.6-33.7l-3.4-1.4
			c-5.1-2.1-9.7-5.4-13.1-9.7l-2.2-2.8H488C496.8,280,504,272.8,504,264z M224,120c13.3,0,25.3,5.4,34,14.2l-34.4,38.2l-18-18
			l-11.3,11.3l30,30l43.1-47.9c2.9,6.2,4.6,13,4.6,20.3c0,26.5-21.5,48-48,48s-48-21.5-48-48S197.5,120,224,120L224,120z M232,276.2
			c0,9.3,2.7,18.4,7.9,26.1l6.3,9.5c1.1,1.7,1.8,3.7,1.8,5.8c0,5.8-4.7,10.4-10.4,10.4H216v-96.6c2.6,0.3,5.3,0.6,8,0.6
			s5.4-0.2,8-0.6V276.2z M151.1,329.8C142.3,333.4,136,342,136,352c0,2.8,0.6,5.5,1.5,8H128c-13.2,0-24-10.8-24-24v-24H88v24
			c0,19.3,13.8,35.5,32,39.2V392h16v-16h24h25.5c-0.9,2.5-1.5,5.2-1.5,8c0,10.4,6.7,19.2,16,22.5V424H56V184h106.1
			c5.1,19.7,19.3,35.7,37.9,43.3V328h-32.8 M160,168h-48c-5.7,0-10.7-3.9-12.1-9.5l-1.6-6.5h63.9C160.8,157.1,160,162.5,160,168z
			 M208,488H48c-13.2,0-24-10.8-24-24V176c0-13.2,10.8-24,24-24h33.8l2.6,10.4c0.5,2,1.2,3.8,2.1,5.6H56c-8.8,0-16,7.2-16,16v240
			c0,8.8,7.2,16,16,16h144c4.1,0,7.8-1.6,10.6-4.1c2.2,1.5,4.6,2.5,7.2,3.2c-1.1,2.8-1.8,5.8-1.8,8.9c0,10.1,6.3,18.7,15.1,22.2
			C228.3,480.4,219.1,488,208,488z M381.6,392c6.4,3.8,10.4,10.4,10.4,17.9v18.5l-32-3.6V392H381.6z M381.6,376H360v-32.8l32-3.6
			v18.5C392,365.6,388,372.2,381.6,376z M488,439.1l-80-8.9v-20.3c0-9.9-3.9-19.1-10.6-25.9c6.7-6.8,10.6-16,10.6-25.9v-20.3l80-8.9
			V439.1z M302.8,307.3l3.4,1.4c15.3,6.1,28.3,16.4,37.8,29.8v90.8C330.4,446,309.7,456,288,456h-48c-4.4,0-8-3.6-8-8s3.6-8,8-8h40
			v-16h-56c-4.4,0-8-3.6-8-8s3.6-8,8-8h56v-16h-72c-4.4,0-8-3.6-8-8s3.6-8,8-8h72v-16H160c-4.4,0-8-3.6-8-8s3.6-8,8-8h77.6
			c14.6,0,26.4-11.8,26.4-26.4c0-5.2-1.5-10.3-4.4-14.7l-6.3-9.5c-3.4-5.1-5.2-11.1-5.2-17.3c0-6.7,5.4-12.1,12.2-12.1l23,28.8
			C288.3,299.2,295.1,304.3,302.8,307.3z M272.6,254c-3.1-3.8-7.6-6-12.5-6c-4.4,0-8.5,1.1-12.2,2.9v-23.6c23.4-9.5,40-32.5,40-59.3
			c0-12-3.4-23.3-9.2-32.9l23.2-25.7L290,98.7l-21.3,23.7C257.2,111,241.4,104,224,104c-2.7,0-5.4,0.2-8,0.6V24h272v240H280.6
			L272.6,254z"/>
		<path class="st1" d="M424,184h16v64h-16V184z"/>
		<path class="st1" d="M392,184h16v64h-16V184z"/>
		<path class="st1" d="M189.8,82.4C173.3,65.4,151.3,56,128,56s-45.3,9.4-61.8,26.4l11.5,11.1C91.2,79.7,109,72,128,72
			s36.8,7.7,50.2,21.6L189.8,82.4z"/>
		<path class="st1" d="M89.8,106.9l12.3,10.2c7-8.4,16.2-13.1,25.8-13.1s18.8,4.7,25.8,13.1l12.3-10.2C156.1,94.7,142.5,88,128,88
			S99.9,94.7,89.8,106.9z"/>
	</g>
</g>
<g>
	<g>
		<path class="st2" d="M87.6,328v-13.8c0-24.2,18.1-44.6,42-47.6l38-4.7v13.8c0,24.2-18.1,44.6-42,47.6L87.6,328z"/>
	</g>
</g>
</svg>
