<?xml version="1.0" encoding="utf-8"?>
<!-- Generator: Adobe Illustrator 24.0.1, SVG Export Plug-In . SVG Version: 6.00 Build 0)  -->
<svg version="1.1" id="Layer_1_1_" xmlns="http://www.w3.org/2000/svg" xmlns:xlink="http://www.w3.org/1999/xlink" x="0px" y="0px"
	 viewBox="0 0 512 512" style="enable-background:new 0 0 512 512;" xml:space="preserve">
<style type="text/css">
	.st0{fill:#FF6600;}
	.st1{stroke:#FFFFFF;stroke-width:6;stroke-miterlimit:10;}
	.st2{fill:#009999;}
</style>
<g>
	<g>
		<rect x="16" y="48" class="st0" width="112" height="96"/>
	</g>
	<g>
		<path class="st0" d="M144,368H48c-8.8,0-16,7.2-16,16v80h128v-80C160,375.2,152.8,368,144,368z"/>
	</g>
	<g>
		<path class="st0" d="M496,96H352V32c0-8.8,7.2-16,16-16h112c8.8,0,16,7.2,16,16V96z"/>
	</g>
	<g>
		<rect x="408" y="392" class="st0" width="64" height="80"/>
	</g>
	<g>
		<path class="st1" d="M32,216h32v40h77.5v-16H80v-24h32c13.2,0,24-10.8,24-24V32c0-13.2-10.8-24-24-24H32C18.8,8,8,18.8,8,32v160
			C8,205.2,18.8,216,32,216z M112,200H32c-4.4,0-8-3.6-8-8v-40h96v40C120,196.4,116.4,200,112,200z M24,136V56h96v80H24z M32,24h80
			c4.4,0,8,3.6,8,8v8H24v-8C24,27.6,27.6,24,32,24z"/>
		<rect x="56" y="168" class="st1" width="32" height="16"/>
		<path class="st1" d="M480,8H368c-13.2,0-24,10.8-24,24v80c0,13.2,10.8,24,24,24h24v16h-16v16h40v80h-36.3v16H432v-96h40v-16h-16
			v-16h24c13.2,0,24-10.8,24-24V32C504,18.8,493.2,8,480,8z M368,24h112c4.4,0,8,3.6,8,8v56H360V32C360,27.6,363.6,24,368,24z
			 M440,152h-32v-16h32V152z M480,120H368c-4.4,0-8-3.6-8-8v-8h128v8C488,116.4,484.4,120,480,120z"/>
		<path class="st1" d="M168,384c0-13.2-10.8-24-24-24H96v-72h24v-16H80v88H48c-13.2,0-24,10.8-24,24v72H8v24c0,13.2,10.8,24,24,24
			h128c13.2,0,24-10.8,24-24v-24h-16V384z M40,384c0-4.4,3.6-8,8-8h96c4.4,0,8,3.6,8,8v72H40V384z M168,480c0,4.4-3.6,8-8,8H32
			c-4.4,0-8-3.6-8-8v-8h144V480z"/>
		<rect x="408" y="392" class="st1" width="16" height="16"/>
		<rect x="456" y="456" class="st1" width="16" height="16"/>
		<rect x="440" y="392" class="st1" width="32" height="16"/>
		<rect x="408" y="456" class="st1" width="32" height="16"/>
		<path class="st1" d="M448,280h-56v16h40v64h-56v144h128V360h-56V280z M392,488v-48h96v48H392z M488,424h-96v-48h96V424z"/>
	</g>
	<g>
		<g>
			<path class="st2" d="M344,344H168c-30.9,0-56-25.1-56-56c0-26.6,18.7-49.2,44.2-54.7c9.4-24.5,33.3-41.3,59.8-41.3
				c9,0,17.9,1.9,26.1,5.6c11.7-18.2,32-29.6,53.9-29.6c35.3,0,64,28.7,64,64c0,0.8,0,1.6-0.1,2.4c23.3,7,40.1,28.8,40.1,53.6
				C400,318.9,374.9,344,344,344z"/>
		</g>
	</g>
</g>
</svg>
