<?xml version="1.0" encoding="utf-8"?>
<!-- Generator: Adobe Illustrator 24.0.1, SVG Export Plug-In . SVG Version: 6.00 Build 0)  -->
<svg version="1.1" id="_x33_0" xmlns="http://www.w3.org/2000/svg" xmlns:xlink="http://www.w3.org/1999/xlink" x="0px" y="0px"
	 viewBox="0 0 512 512" style="enable-background:new 0 0 512 512;" xml:space="preserve">
<style type="text/css">
	.st0{fill:#FF6600;}
	.st1{fill:#009999;}
</style>
<g>
	<g>
		<g>
			<path class="st0" d="M200,136h-48V96h48V136z"/>
		</g>
	</g>
	<g>
		<path class="st1" d="M391.1,408h-78.2c-10.4,10.2-16.9,24.3-16.9,40c0,30.9,25.1,56,56,56s56-25.1,56-56
			C408,432.3,401.5,418.2,391.1,408z M352,464c-8.8,0-16-7.2-16-16s7.2-16,16-16s16,7.2,16,16S360.8,464,352,464z"/>
	</g>
	<g>
		<path class="st1" d="M151.1,408H72.9C62.5,418.2,56,432.3,56,448c0,30.9,25.1,56,56,56s56-25.1,56-56
			C168,432.3,161.5,418.2,151.1,408z M112,464c-8.8,0-16-7.2-16-16s7.2-16,16-16s16,7.2,16,16S120.8,464,112,464z"/>
	</g>
	<g>
		<path d="M229,104c0-7.2-5.8-13-13-13h-80c-7.2,0-13,5.8-13,13v80c0,7.2,5.8,13,13,13h80c7.2,0,13-5.8,13-13V104z M219,187h-86v-86
			h86V187z"/>
		<path d="M167.1,427c1.2,3.2,2.1,6.5,2.8,10h124.2c0.6-3.4,1.6-6.7,2.9-10H167.1z"/>
		<path d="M501,272c0-29.2-23.8-53-53-53H341v-75c0-11.6-9.4-21-21-21h-12.7l-0.4-2.5C295.5,57.1,240.4,11,176,11
			C111.6,11,56.5,57.1,45.2,120.5l-0.4,2.5H32c-11.6,0-21,9.4-21,21v280c0,7.2,5.8,13,13,13h30.1c0.6-3.4,1.6-6.7,2.9-10H21v-22h470
			v22h-83.9c1.2,3.2,2.2,6.5,2.9,10H488c7.2,0,13-5.8,13-13V272z M268.5,63.1c17.9,20.5,28.3,45.6,30.1,72.7l0.2,3.2h-22l-0.2-2.8
			c-1.6-21.5-9.9-41.5-24-57.9l-1.8-2.1l15.5-15.5L268.5,63.1z M184.2,266.6l-3.2,0.2v-22l2.8-0.2c21.5-1.6,41.5-9.9,57.9-24
			l2.1-1.8l15.5,15.5l-2.4,2.1C236.4,254.4,211.3,264.8,184.2,266.6z M286.6,307h-42.1l-13.8,34.6l-45.4-64.8l5-0.6
			c20.9-2.3,40.5-9.3,58.2-20.9l2.5-1.6L286.6,307z M250.8,211.8l1.8-2.1c14.1-16.4,22.4-36.4,24-57.9l0.2-2.8h22l-0.2,3.2
			c-1.8,27.1-12.2,52.2-30.1,72.7l-2.1,2.4L250.8,211.8z M181,21.2l3.2,0.2c27.1,1.8,52.2,12.2,72.7,30.1l2.4,2.1l-15.5,15.5
			l-2.1-1.8c-16.4-14.1-36.4-22.4-57.9-24l-2.8-0.2V21.2z M267,144c0,50.2-40.8,91-91,91s-91-40.8-91-91s40.8-91,91-91
			S267,93.8,267,144z M95.1,236.5l-2.4-2.1l15.5-15.5l2.1,1.8c16.4,14.1,36.4,22.4,57.9,24l2.8,0.2v22l-3.2-0.2
			C140.7,264.8,115.6,254.4,95.1,236.5z M166.6,276.8l-45.4,64.8L107.4,307H65.3l35.6-53.3l2.5,1.6c17.8,11.6,37.4,18.6,58.2,20.9
			L166.6,276.8z M95.1,51.5c20.5-17.9,45.6-28.3,72.7-30.1l3.2-0.2v22l-2.8,0.2c-21.5,1.6-41.5,9.9-57.9,24l-2.1,1.8L92.7,53.7
			L95.1,51.5z M53.4,135.8c1.8-27.1,12.2-52.2,30.1-72.7l2.1-2.4l15.5,15.5l-1.8,2.1c-14.1,16.4-22.4,36.4-24,57.9l-0.2,2.8h-22
			L53.4,135.8z M75.2,149l0.2,2.8c1.6,21.5,9.9,41.5,24,57.9l1.8,2.1l-15.5,15.5l-2.1-2.4c-17.9-20.5-28.3-45.6-30.1-72.7l-0.2-3.2
			H75.2z M331,395H21V144c0-6.1,4.9-11,11-11h11.6l-0.3,3.5c-0.2,2.6-0.4,5-0.4,7.5c0,39.4,17.4,76.6,47.8,102l2.1,1.7L46.7,317
			h53.9l18.2,45.4l57.2-81.7l57.2,81.8l18.2-45.4h53.9l-46.2-69.3l2.1-1.7C291.6,220.6,309,183.4,309,144c0-2.5-0.2-4.9-0.4-7.5
			l-0.3-3.5H320c6.1,0,11,4.9,11,11V395z M363,264v131h-22V229h107c13.5,0,26,6.3,34.2,17.2l3.6,4.8H376
			C368.8,251,363,256.8,363,264z M491,395H373v-70h118V395z M491,315H373v-54h116.7l0.5,2.4c0.6,2.9,0.9,5.8,0.9,8.6V315z"/>
		<rect x="395" y="347" width="26" height="10"/>
		<rect x="459" y="123" width="10" height="10"/>
		<rect x="427" y="123" width="10" height="10"/>
		<rect x="395" y="123" width="10" height="10"/>
		<path d="M501,104c0-7.2-5.8-13-13-13H376c-7.2,0-13,5.8-13,13v48c0,7.2,5.8,13,13,13h19v15.7c0,9,7.3,16.3,16.3,16.3
			c4.3,0,8.5-1.8,11.6-4.8l27.2-27.2H488c7.2,0,13-5.8,13-13V104z M491,155h-45.1l-30.1,30.1c-1.1,1.1-2.7,1.7-4.3,1.7
			c-0.8,0-1.7-0.2-2.5-0.5c-2.4-1-3.9-3.2-3.9-5.6V155h-32v-54h118L491,155z"/>
		<path d="M112,427c-11.6,0-21,9.4-21,21s9.4,21,21,21s21-9.4,21-21S123.6,427,112,427z M112,459c-6.1,0-11-4.9-11-11s4.9-11,11-11
			s11,4.9,11,11S118.1,459,112,459z"/>
		<path d="M352,427c-11.6,0-21,9.4-21,21s9.4,21,21,21s21-9.4,21-21S363.6,427,352,427z M352,459c-6.1,0-11-4.9-11-11s4.9-11,11-11
			s11,4.9,11,11S358.1,459,352,459z"/>
	</g>
</g>
</svg>
