<?xml version="1.0" encoding="utf-8"?>
<!-- Generator: Adobe Illustrator 24.0.1, SVG Export Plug-In . SVG Version: 6.00 Build 0)  -->
<svg version="1.1" id="_x33_0" xmlns="http://www.w3.org/2000/svg" xmlns:xlink="http://www.w3.org/1999/xlink" x="0px" y="0px"
	 viewBox="0 0 512 512" style="enable-background:new 0 0 512 512;" xml:space="preserve">
<style type="text/css">
	.st0{fill:#FF6600;}
	.st1{fill:#009999;}
	.st2{stroke:#FFFFFF;stroke-width:6;stroke-miterlimit:10;}
</style>
<g>
	<g>
		<g>
			<path class="st0" d="M440,408h-80v-56h80V408z"/>
		</g>
	</g>
	<g>
		<g>
			<path class="st1" d="M360,152h-80V72h80V152z"/>
		</g>
	</g>
	<g>
		<circle class="st2" cx="160" cy="176" r="8"/>
		<path class="st2" d="M488,344H357.9c1.3-3.7,2.1-7.6,2.1-11.7c0-1.5-0.3-2.9-0.4-4.3H385l57.2-14.3c8.1-2,13.8-9.3,13.8-17.7h32
			v-56h-16v40h-25.6c-1.3-0.7-2.7-1.3-4.2-1.7L392,265.8V200h48v-16h-64v80.2L256,264c-13.2,0-24,10.8-24,24v16
			c0,13.2,10.8,24,24,24h20.3c-19.6,18.5-42.6,32.1-67.8,39.9C196,334.8,169,310.4,136,300.7V280h24c22.1,0,40-17.9,40-40v-19.1l2-1
			c8.6-4.3,14-13,14-22.7c0-5-1.5-9.9-4.3-14.1l-10.4-15.6c-0.9-1.3-1.3-2.8-1.3-4.4V152h32c8.8,0,16-7.2,16-16v-8
			c0-13.2-10.8-24-24-24h-8.5c-4-35.9-34.5-64-71.5-64h-8v-8c0-13.2-10.8-24-24-24H96C82.8,8,72,18.8,72,32v8.5
			C36.1,44.5,8,75,8,112v80.6C8,229,31,262.2,65.1,275l6.9,2.6v23.6l-13.4,16.7c-12,15-18.6,33.9-18.6,53.1c0,18.4,6,35.5,16,49.4
			V504h448V360C504,351.2,496.8,344,488,344L488,344z M296,406.9V488h-80v-41.9C244.7,437.9,271.7,424.7,296,406.9z M184,436.9V390
			c40.6-5.9,78-24.7,107.5-54.2l17.8-17.8c3.8-3.8,8.9-5.9,14.3-5.9c11.2,0,20.3,9.1,20.3,20.3c0,5.4-2.1,10.5-5.9,14.3l-23,23
			C278.9,405.8,233.4,428.9,184,436.9L184,436.9z M312,298.1c-5.2,1.8-10,4.6-13.9,8.5l-2.1,2.1V280h16V298.1z M440,296
			c0,1-0.7,1.9-1.7,2.2l-14.3,3.6v-11.5l14.3,3.6C439.3,294.1,440,295,440,296L440,296z M408,286.2v19.5l-16,4v-27.5L408,286.2z
			 M376,312h-22.2c-5.8-8.5-15.1-14.3-25.8-15.6V280h48V312z M248,304v-16c0-4.4,3.6-8,8-8h24v32h-24C251.6,312,248,308.4,248,304z
			 M188,176.5l10.4,15.6c1,1.6,1.6,3.3,1.6,5.2c0,3.6-2,6.8-5.2,8.4l-2,1c-5.5,2.7-8.8,8.2-8.8,14.3v11h-16c-8.8,0-16-7.2-16-16h-16
			c0,17.6,14.4,32,32,32h14.5c-3.3,9.3-12.1,16-22.5,16h-40v33.2c-5.2-0.7-10.6-1.2-16-1.2H88v-60l-24.5-18.4
			c-4.7-3.5-7.5-9.1-7.5-14.9c0-10.3,8.4-18.7,18.7-18.7H88v-32h96v11.2C184,167.9,185.4,172.5,188,176.5L188,176.5z M232,128v8H104
			v-8c0-4.4,3.6-8,8-8h112C228.4,120,232,123.6,232,128z M96,24h16c4.4,0,8,3.6,8,8v8H88v-8C88,27.6,91.6,24,96,24z M80,56h64
			c28.2,0,51.5,20.9,55.4,48H112c-13.2,0-24,10.8-24,24v8H24v-24C24,81.1,49.1,56,80,56z M70.7,260C42.8,249.5,24,222.4,24,192.6
			V152h48v16.1c-17.9,1.4-32,16.3-32,34.6c0,10.8,5.2,21.2,13.9,27.7L72,244v16.5L70.7,260z M71.1,327.9L83.8,312H104
			c39.7,0,74.4,23.8,89,60c-12.1,2.6-24.5,4-37.2,4H104v16h51.8c4.1,0,8.2-0.2,12.2-0.4v47.3c-7.5,0.7-15.1,1.1-22.7,1.1H125
			c-38,0-69-31-69-69C56,355.4,61.4,340.1,71.1,327.9L71.1,327.9z M72,437.3C86.5,449,105,456,125,456h20.3c18.6,0,36.9-2,54.7-5.9
			V488H72V437.3z M488,488H312v-93.8c4.9-4.2,9.7-8.6,14.3-13.2l21-21H488V488z"/>
		<path class="st2" d="M392,376h16v32h-16V376z"/>
		<path class="st2" d="M424,456h48v16h-48V456z"/>
		<path class="st2" d="M413.7,226.3l-11.3,11.3l30.3,30.3l69.6-87l-12.5-10l-58.4,73L413.7,226.3z"/>
		<path class="st2" d="M413.7,82.3l-11.3,11.3l30.3,30.3l69.6-87l-12.5-10l-58.4,73L413.7,82.3z"/>
		<path class="st2" d="M488,96h-16v40h-80V56h48V40h-64v112h112V96z"/>
		<path class="st2" d="M280,104h80v16h-80V104z"/>
		<path class="st2" d="M280,72h32v16h-32V72z"/>
		<path class="st2" d="M328,72h32v16h-32V72z"/>
		<path class="st2" d="M280,136h16v16h-16V136z"/>
		<path class="st2" d="M312,136h16v16h-16V136z"/>
		<path class="st2" d="M344,136h16v16h-16V136z"/>
	</g>
</g>
</svg>
